<svg id="Camada_1" data-name="Camada 1" xmlns="http://www.w3.org/2000/svg" viewBox="0 0 256 256"><defs><style>.cls-1{fill:#fff;}</style></defs><path class="cls-1" d="M113.53,230.93l-27.09-12Q54.91,205,23.37,191c-5.43-2.39-8.08-6.35-8.08-12.22q0-55,0-110c0-.63.06-1.26.11-2.34,1,.38,1.93.66,2.77,1q46.5,20.59,93,41.17c1.63.72,2.54,1.43,2.53,3.5q-.11,58.26-.06,116.51C113.64,229.27,113.58,229.88,113.53,230.93Z"/><path class="cls-1" d="M189.08,135.89a51.84,51.84,0,0,1,51.63,52c-.18,28.88-23.44,52.13-52,52a52.15,52.15,0,0,1-52-52.35C136.74,159,160.26,135.8,189.08,135.89Zm-6.21,61.25c-3.34-3.43-6.39-6.62-9.52-9.73-2.95-2.94-6.37-3.16-8.84-.69s-2.26,5.88.66,8.84Q171.53,202,178,208.38c3.55,3.51,6.46,3.5,10,0q9.21-9.17,18.37-18.37c3.25-3.25,6.57-6.44,9.71-9.8a5.56,5.56,0,0,0-.15-8,5.75,5.75,0,0,0-8.05,0c-1.4,1.27-2.7,2.65-4,4Z"/><path class="cls-1" d="M223.22,134.25c-20.17-11.81-40.93-13.73-61.94-3.6s-32.45,27.34-35.9,50.53c-.1-.69-.18-1.11-.2-1.53s0-1.09,0-1.63c0-21.85,0-43.7,0-65.56a3.43,3.43,0,0,1,2.43-3.78q46.53-20.49,93-41.15c.8-.35,1.62-.66,2.68-1.09Z"/><path class="cls-1" d="M215,57.33l-11.7,5.2q-40.41,17.93-80.8,35.89a6.63,6.63,0,0,1-6,0c-13.39-6-26.83-12-40.66-18.1,1-.53,1.63-.93,2.31-1.24q45.48-20.16,91-40.29a4.37,4.37,0,0,1,3-.41C186.15,44.54,200.23,50.8,215,57.33Z"/><path class="cls-1" d="M156.46,31.67c-7.55,3.36-14.83,6.62-22.13,9.85Q99,57.19,63.63,72.88a5.33,5.33,0,0,1-4.81,0C48.05,68,37.23,63.28,26.44,58.49c-.65-.28-1.26-.63-2.33-1.17,2-.93,3.63-1.71,5.28-2.45q42.15-18.69,84.3-37.38c3.48-1.55,6.94-1.92,10.47-.37Q139.75,24,155.32,30.9A9.86,9.86,0,0,1,156.46,31.67Z"/><path class="cls-1" d="M137.53,225.5l-12.27,5.44V194.68A67.37,67.37,0,0,0,137.53,225.5Z"/></svg>