<svg id="Camada_1" data-name="Camada 1" xmlns="http://www.w3.org/2000/svg" viewBox="0 0 256 256"><defs><style>.cls-1{fill:#fff;}</style></defs><path class="cls-1" d="M161.86,171.24H104.68c-1.14-8-4.78-14.52-11.64-19a25.55,25.55,0,0,0-16.36-3.94c-11.45.86-20.11,9.42-22.91,22.86a62.27,62.27,0,0,1-8.42-.08A7.68,7.68,0,0,1,39.1,164c-.18-7.34-.05-14.69-.05-22.35H42c7.46,0,14.91,0,22.37,0a14.61,14.61,0,1,0,.19-29.21c-7.46-.12-14.91,0-22.37,0h-3v-4.55h5.34c4.16,0,8.33.11,12.48-.07,7.56-.34,13.71-7.07,13.64-14.71s-6.08-14.16-13.6-14.44c-5.87-.21-11.76,0-17.58,0-2.2-8.79,3.32-13.06,9.58-13,34.23.21,68.47.1,102.71.1,6.91,0,10.1,3.11,10.1,9.91v95.72Z"/><path class="cls-1" d="M176.63,171.3h-6.06V91h7.28c7,0,14.06-.15,21.07.1a10.15,10.15,0,0,1,5.52,2.17c2.95,2.33,5.54,5.12,8.81,8.24-4.24,0-7.75,0-11.26,0-4.35,0-6.2,1.83-6.24,6.15s0,8.84,0,13.26c0,4.19,1.9,6,6.08,6q18.07,0,36.15,0c3,0,6.48,3.16,6.5,6.17.08,11.18.06,22.37,0,33.55,0,2.58-1.63,4.47-4.07,4.56-4.22.16-8.46,0-12.86,0-1.05-7.65-4.37-13.9-10.63-18.39a24.81,24.81,0,0,0-15.88-4.7C188.62,148.69,179.74,157,176.63,171.3Z"/><path class="cls-1" d="M219.06,173.56A16.93,16.93,0,1,1,202,156.64,16.9,16.9,0,0,1,219.06,173.56Z"/><path class="cls-1" d="M79.15,156.63a16.92,16.92,0,1,1-16.8,16.85A16.8,16.8,0,0,1,79.15,156.63Z"/><path class="cls-1" d="M41,133.28c-7.44,0-14.89,0-22.33,0-4.28,0-7.11-2.46-7.2-6.15s2.78-6.45,7.16-6.45q22.47,0,44.92,0c4.45,0,7.26,2.58,7.19,6.42s-2.86,6.18-7.15,6.19C56.06,133.3,48.53,133.28,41,133.28Z"/><path class="cls-1" d="M41.37,86.81c4.58,0,9.17,0,13.76,0,4.25,0,7.07,2.55,7.09,6.25s-2.81,6.37-7,6.38q-14.16.06-28.3,0c-4.17,0-7-2.7-7-6.41s2.82-6.17,6.87-6.22C31.67,86.77,36.52,86.81,41.37,86.81Z"/></svg>