<svg id="Camada_1" data-name="Camada 1" xmlns="http://www.w3.org/2000/svg" viewBox="0 0 190.22 238.92"><defs><style>.cls-1{fill:#fff;}</style></defs><path class="cls-1" d="M131.27,8.54a38.72,38.72,0,0,1,13.8,6.83c1.15.89,3.05,1,4.63,1.09,5,.27,9.9.76,14.05,4a12,12,0,0,1,4.94,10.27A8.44,8.44,0,0,1,166.32,36c-5.78,5.52-11.75,10.84-17.85,16a8.61,8.61,0,0,1-5.1,1.71c-10.24.15-20.48.19-30.72,0A9.81,9.81,0,0,1,107,51.57c-5.36-4.46-10.47-9.23-15.68-13.89-5.47-4.9-5.22-12.21.55-16.93,4.09-3.34,9-4.18,14-4.19a10.18,10.18,0,0,0,7-2.46c3.43-3,7.67-4.2,11.85-5.56Z" transform="translate(-32.89 -8.54)"/><path class="cls-1" d="M128,247.46c-12.87-.45-25.77-.52-38.6-1.45-12.29-.89-24.22-3.67-34.85-10.43-9.86-6.28-15.73-15.42-18.74-26.53-3.42-12.62-3.29-25.47-2.33-38.36,1.15-15.42,4.09-30.41,10.67-44.52,9.46-20.29,24.87-33.89,46.07-41,16.32-5.45,33.1-6.42,50.11-5.08a100.92,100.92,0,0,1,32.41,7.72c17.64,7.61,30.47,20.19,38.73,37.49,6.89,14.41,9.91,29.78,11.09,45.59.79,10.55.91,21.08-.87,31.56-3.18,18.6-12.87,31.9-31,38.43-10.78,3.88-22,5.48-33.31,5.83-9.77.29-19.55.06-29.33.06Zm31.82-66.9A19.11,19.11,0,0,0,152.76,165a29.54,29.54,0,0,0-8.12-4.89c-6.22-2.34-12.66-4.11-19-6.24a32.56,32.56,0,0,1-6.55-2.9,4.7,4.7,0,0,1-.61-7.87,11.6,11.6,0,0,1,5.42-2.29c6.14-.92,11.8.77,17.2,3.67,4.55,2.45,9.06,1.56,11.85-2.14,3-3.9,2.76-8.94-1.35-12.29A43.92,43.92,0,0,0,141,124.13c-4.06-1.73-4.18-1.46-4.52-5.94a8.47,8.47,0,0,0-16.59-1.84,11,11,0,0,0-.35,3.91c.21,2.08-.54,2.86-2.59,3.45-10.19,2.94-17.39,8.88-19.45,19.91a21.5,21.5,0,0,0,9.66,22.29c5.06,3.2,10.7,4.84,16.32,6.61a104.19,104.19,0,0,1,13.3,4.78c4.24,2,4.45,6,.8,9a9.5,9.5,0,0,1-4.12,2,26.32,26.32,0,0,1-6.69.35,33.36,33.36,0,0,1-16.3-5.63,8.23,8.23,0,0,0-9.22-.38,10.09,10.09,0,0,0-.63,17.25c4,2.6,8.52,4.3,12.9,6.2,1.81.79,4.66.45,5.58,1.7s.34,4,.46,6.09a8.47,8.47,0,0,0,16.92.25c.13-1.85-.06-3.74.15-5.58a3.15,3.15,0,0,1,1.4-1.91,9,9,0,0,1,2.44-.69C152.36,202.54,159.84,192.92,159.82,180.56Z" transform="translate(-32.89 -8.54)"/><path class="cls-1" d="M142.06,74.7c-9.61,0-19.45,0-29.3,0-4.2,0-7.29-2.5-7.6-6.27a6.93,6.93,0,0,1,6.46-7.66,179.64,179.64,0,0,1,32.55,0c4.33.41,7,3.62,6.68,7.7S147.23,74.92,142.06,74.7Z" transform="translate(-32.89 -8.54)"/><path class="cls-1" d="M125.21,202.55c-4.09-.86-8-1.37-11.77-2.59a44.32,44.32,0,0,1-9.11-4.49,5.13,5.13,0,0,1-2.21-3.54,6.16,6.16,0,0,1,1.63-4c1.11-1.25,2.64-.72,4,.15a38.45,38.45,0,0,0,24.1,6.29c5.82-.47,10.64-2.81,13-8.65,2-4.93.83-9.57-3.7-12.4a52.48,52.48,0,0,0-9.88-4.5c-6-2.21-12.28-3.87-18.22-6.29-5-2-8.76-5.56-9.74-11.28-1.66-9.72,3.07-17.82,12.57-21.17,3-1,6.11-1.66,9.35-2.51,0-2.61,0-5.32,0-8,0-2.3,1-3.57,2.83-3.47,2.22.12,2.78,1.61,2.77,3.54,0,2.64,0,5.27,0,8,2.93.7,5.84,1.16,8.59,2.1a61.37,61.37,0,0,1,7.1,3.38,4.46,4.46,0,0,1,1.1.84c1.46,1.38,2.06,3,.86,4.77s-2.86,1.83-4.68.76a33.57,33.57,0,0,0-18.94-4.62c-4,.2-7.83,1.31-10.73,4.35-5.47,5.71-4,13.91,3.5,17.54,4.56,2.2,9.62,3.36,14.42,5.1,4.64,1.7,9.5,3.07,13.79,5.43,10.13,5.6,11.18,20.25,2.39,27.9-4.57,4-10,5.81-15.83,6.69l-1.59.26c0,3.78,0,7.48,0,11.19a2.67,2.67,0,0,1-2.66,3,2.63,2.63,0,0,1-2.85-2.5,13.21,13.21,0,0,1,0-2.09C125.21,208.56,125.21,205.47,125.21,202.55Z" transform="translate(-32.89 -8.54)"/></svg>