<svg id="Camada_1" data-name="Camada 1" xmlns="http://www.w3.org/2000/svg" viewBox="0 0 196.25 233.53"><defs><style>.cls-1{fill:#fff;}</style></defs><path class="cls-1" d="M129.32,244.77h-2.74c0-.07-.07-.16-.13-.18A168.08,168.08,0,0,1,87.9,226.33c-22.82-14.84-38.89-35-48-60.69-7-19.85-9.54-40.47-9.92-61.35-.29-16.41.18-32.83.3-49.25.05-6.67,3.06-9.65,9.67-10,7-.35,14-.62,20.9-1.53,16.42-2.16,31.74-7.58,45.38-17.09,5.52-3.85,10.57-8.4,15.75-12.74,3.85-3.23,8.17-3.32,11.92,0,1,.85,1.9,1.75,2.85,2.63a103.51,103.51,0,0,0,55.59,26.76c7.94,1.21,16,1.47,24,2,6.11.39,9.19,3.41,9.26,9.46.16,12.69.39,25.39.48,38.08.12,18-1,35.84-4.68,53.48-8.43,40.69-31.14,70.42-68.5,88.72C145.27,238.56,137.2,241.47,129.32,244.77ZM83.37,123.26c.56.68,1,1.22,1.42,1.72q11.83,13.12,23.68,26.22c4.36,4.8,9.08,4.92,13.83.45q24.31-22.89,48.65-45.76c.6-.57,1.26-1.08,2-1.74L161.45,91.79l-45.21,43-20.4-22.6Z" transform="translate(-29.88 -11.23)"/></svg>